<svg xmlns="http://www.w3.org/2000/svg" width="1920" height="1080" viewBox="0 0 1920 1080">
  <rect width="1920" height="1080" fill="#172e27"/>
  <path d="M0 0H1920V170H0Z" fill="#10231d"/>
  <text x="100" y="105" fill="#f7f1df" font-family="Helvetica Neue, Arial, sans-serif" font-size="48" font-weight="800">Codex accelerated the rebuild</text>
  <text x="1810" y="105" text-anchor="end" fill="#f4d66b" font-family="Helvetica Neue, Arial, sans-serif" font-size="27" font-weight="750" letter-spacing="3">OPENAI BUILD WEEK</text>

  <g font-family="Helvetica Neue, Arial, sans-serif">
    <path d="M150 354H1180" stroke="#f4d66b" stroke-width="10" stroke-linecap="round"/>
    <g>
      <circle cx="210" cy="354" r="36" fill="#2f6cf5"/><text x="210" y="366" text-anchor="middle" fill="white" font-size="32" font-weight="800">1</text>
      <rect x="115" y="420" width="380" height="245" rx="28" fill="#fbf6e9"/>
      <text x="155" y="480" fill="#173028" font-size="31" font-weight="800">Migrate</text>
      <text x="155" y="532" fill="#5f5a4e" font-size="25">Hugging Face Space</text>
      <text x="155" y="571" fill="#5f5a4e" font-size="25">→ production server</text>
      <rect x="155" y="603" width="290" height="38" rx="19" fill="#e9efff"/><text x="300" y="630" text-anchor="middle" fill="#275ac2" font-size="20" font-weight="700">tutori.ssh.codes</text>
    </g>
    <g>
      <circle cx="540" cy="354" r="36" fill="#e64a39"/><text x="540" y="366" text-anchor="middle" fill="white" font-size="32" font-weight="800">2</text>
      <rect x="520" y="420" width="380" height="245" rx="28" fill="#fbf6e9"/>
      <text x="560" y="480" fill="#173028" font-size="31" font-weight="800">Diagnose</text>
      <text x="560" y="532" fill="#5f5a4e" font-size="25">stuck loading</text>
      <text x="560" y="571" fill="#5f5a4e" font-size="25">silent audio</text>
      <text x="560" y="610" fill="#5f5a4e" font-size="25">laggy controls</text>
    </g>
    <g>
      <circle cx="945" cy="354" r="36" fill="#7e61e8"/><text x="945" y="366" text-anchor="middle" fill="white" font-size="32" font-weight="800">3</text>
      <rect x="925" y="420" width="380" height="245" rx="28" fill="#fbf6e9"/>
      <text x="965" y="480" fill="#173028" font-size="31" font-weight="800">Rebuild</text>
      <text x="965" y="532" fill="#5f5a4e" font-size="25">streaming pipeline</text>
      <text x="965" y="571" fill="#5f5a4e" font-size="25">speech validation</text>
      <text x="965" y="610" fill="#5f5a4e" font-size="25">collision guardrails</text>
    </g>
  </g>

  <rect x="1360" y="250" width="450" height="510" rx="42" fill="#c9bcff" stroke="#7e61e8" stroke-width="6"/>
  <text x="1410" y="328" fill="#38246e" font-family="Helvetica Neue, Arial, sans-serif" font-size="27" font-weight="800" letter-spacing="2">KEY DECISION</text>
  <text x="1410" y="412" fill="#2e1d63" font-family="Helvetica Neue, Arial, sans-serif" font-size="40" font-weight="850">GPT-5.6 decides</text>
  <text x="1410" y="460" fill="#4d397f" font-family="Helvetica Neue, Arial, sans-serif" font-size="29">pedagogy + visual reasoning</text>
  <path d="M1420 515H1750" stroke="#7352da" stroke-width="5"/>
  <text x="1410" y="590" fill="#2e1d63" font-family="Helvetica Neue, Arial, sans-serif" font-size="40" font-weight="850">Code guarantees</text>
  <text x="1410" y="638" fill="#4d397f" font-family="Helvetica Neue, Arial, sans-serif" font-size="29">geometry + timing + recovery</text>
  <rect x="1410" y="688" width="315" height="44" rx="22" fill="#7352da"/>
  <text x="1568" y="718" text-anchor="middle" fill="white" font-family="Helvetica Neue, Arial, sans-serif" font-size="22" font-weight="750">MODEL + GUARDRAILS</text>

  <rect x="115" y="760" width="1190" height="180" rx="30" fill="#10231d" stroke="#315347" stroke-width="4"/>
  <text x="165" y="825" fill="#f4d66b" font-family="Helvetica Neue, Arial, sans-serif" font-size="30" font-weight="800">4 · VERIFY &amp; SHIP</text>
  <text x="165" y="880" fill="#f7f1df" font-family="Helvetica Neue, Arial, sans-serif" font-size="31" font-weight="650">Regression tests · deployment checks · public Apache-2.0 release</text>
  <text x="165" y="918" fill="#9eb4aa" font-family="Helvetica Neue, Arial, sans-serif" font-size="23">Dated commits preserve the Build Week work.</text>
</svg>
